# xmcd
# 
# Track frame offsets:
#     150
#     12761
#     25639
#     37654
#     52442
#     66254
#     78785
#     93733
#     106951
#     120540
#     133920
#     146824
#     159745
#     174119
#     188115
#     202935
# 
# Disc length: 2885
# 
# Revision: 1
# Processed by: cddbd v1.5.2PL0 Copyright (c) Steve Scherf et al.
# Submitted via: fre:ac v1.0.17
# 
DISCID=d30b4310
DTITLE=Sarah Vaughan - The Best Of Sarah Vaughan
DYEAR=0
DGENRE=Jazz
TTITLE0=What A Difference A Day Makes
TTITLE1=I Get A Kick Out Of You
TTITLE2=Signing Off
TTITLE3=Summertime
TTITLE4=Tenderly
TTITLE5=The Man I Love
TTITLE6=Black Coffee
TTITLE7=Body And Soul
TTITLE8=Don't Blame Me
TTITLE9=Don't Worry About Me
TTITLE10=East Of The Sun
TTITLE11=Everything I Have Is Yours
TTITLE12=The One I Love Belongs To Somebody Else
TTITLE13=Time After Time
TTITLE14=Time And Again
TTITLE15=You're Not The Kind
EXTD=
EXTT0=
EXTT1=
EXTT2=
EXTT3=
EXTT4=
EXTT5=
EXTT6=
EXTT7=
EXTT8=
EXTT9=
EXTT10=
EXTT11=
EXTT12=
EXTT13=
EXTT14=
EXTT15=
PLAYORDER=
